<svg xmlns="http://www.w3.org/2000/svg" xmlns:xlink="http://www.w3.org/1999/xlink" width="500" zoomAndPan="magnify" viewBox="0 0 375 374.999991" height="500" preserveAspectRatio="xMidYMid meet" version="1.0"><defs><g/><clipPath id="id1"><path d="M 129.980469 96.417969 L 226.730469 96.417969 L 226.730469 193.167969 L 129.980469 193.167969 Z M 129.980469 96.417969 " clip-rule="nonzero"/></clipPath><clipPath id="id2"><path d="M 148.582031 117 L 245 117 L 245 209.242188 L 148.582031 209.242188 Z M 148.582031 117 " clip-rule="nonzero"/></clipPath></defs><g clip-path="url(#id1)"><path fill="#ff914d" d="M 223.878906 142.761719 L 180.363281 99.25 C 178.597656 97.507812 176.179688 96.417969 173.519531 96.417969 L 139.65625 96.417969 C 134.3125 96.417969 129.980469 100.75 129.980469 106.09375 L 129.980469 139.957031 C 129.980469 142.640625 131.070312 145.058594 132.835938 146.800781 L 176.375 190.339844 C 178.113281 192.082031 180.535156 193.167969 183.195312 193.167969 C 185.855469 193.167969 188.296875 192.082031 190.039062 190.339844 L 223.902344 156.476562 C 225.644531 154.710938 226.730469 152.292969 226.730469 149.632812 C 226.730469 146.945312 225.644531 144.527344 223.878906 142.761719 Z M 146.914062 120.605469 C 142.898438 120.605469 139.65625 117.363281 139.65625 113.351562 C 139.65625 109.335938 142.898438 106.09375 146.914062 106.09375 C 150.929688 106.09375 154.167969 109.335938 154.167969 113.351562 C 154.167969 117.363281 150.929688 120.605469 146.914062 120.605469 Z M 146.914062 120.605469 " fill-opacity="1" fill-rule="nonzero"/></g><g clip-path="url(#id2)"><path fill="#231f20" d="M 151.203125 117.015625 C 151.351562 117.015625 151.503906 117.03125 151.648438 117.054688 C 151.652344 117.054688 151.65625 117.054688 151.65625 117.054688 L 166.421875 119.574219 C 167.363281 119.734375 168.148438 120.378906 168.496094 121.265625 C 168.496094 121.269531 168.496094 121.269531 168.496094 121.273438 L 175.351562 138.824219 L 242.222656 140.488281 C 242.988281 140.507812 243.710938 140.855469 244.210938 141.433594 C 244.710938 142.011719 244.953125 142.78125 244.859375 143.546875 L 241.167969 174.050781 C 241.015625 175.328125 239.957031 176.34375 238.671875 176.445312 L 190.996094 180.230469 L 181.546875 187.65625 C 181.539062 187.664062 181.527344 187.671875 181.515625 187.679688 C 181.503906 187.6875 181.492188 187.691406 181.480469 187.695312 C 181.46875 187.703125 181.460938 187.714844 181.449219 187.722656 C 179.722656 189.007812 179.296875 190.757812 179.539062 191.730469 C 179.679688 192.285156 179.890625 192.695312 180.394531 193.007812 C 180.898438 193.320312 181.769531 193.550781 183.257812 193.464844 C 183.261719 193.464844 183.269531 193.464844 183.273438 193.464844 C 183.320312 193.460938 183.375 193.460938 183.421875 193.464844 C 183.429688 193.464844 183.441406 193.464844 183.449219 193.464844 L 240.308594 193.628906 L 240.316406 193.628906 C 241.808594 193.621094 243.066406 194.871094 243.0625 196.363281 C 243.054688 197.855469 241.792969 199.101562 240.296875 199.082031 L 240.289062 199.082031 L 236.132812 199.074219 C 237.679688 200.058594 238.714844 201.777344 238.714844 203.730469 C 238.714844 206.769531 236.222656 209.257812 233.179688 209.257812 C 230.140625 209.257812 227.648438 206.769531 227.648438 203.730469 C 227.648438 201.765625 228.6875 200.027344 230.246094 199.046875 L 183.421875 198.917969 C 185.109375 199.867188 186.257812 201.667969 186.257812 203.730469 C 186.257812 206.769531 183.769531 209.257812 180.726562 209.257812 C 177.683594 209.257812 175.195312 206.769531 175.195312 203.730469 C 175.195312 201.089844 177.070312 198.867188 179.558594 198.328125 C 177.207031 197.496094 175.398438 195.785156 174.28125 193.164062 C 174.265625 193.132812 174.25 193.101562 174.238281 193.066406 C 173.382812 189.640625 174.902344 185.917969 178.039062 183.496094 C 178.046875 183.488281 178.054688 183.476562 178.0625 183.46875 C 178.070312 183.464844 178.074219 183.453125 178.082031 183.445312 C 178.109375 183.414062 178.136719 183.382812 178.171875 183.355469 L 184.867188 178.109375 L 163.984375 124.6875 L 150.738281 122.433594 C 150.734375 122.433594 150.734375 122.433594 150.730469 122.433594 C 149.339844 122.210938 148.320312 120.914062 148.441406 119.507812 C 148.558594 118.097656 149.789062 116.996094 151.203125 117.015625 Z M 177.367188 143.035156 L 181.214844 152.894531 L 186.234375 152.894531 L 186.234375 143.257812 Z M 188.148438 143.308594 L 188.148438 152.894531 L 197.414062 152.894531 L 197.414062 143.539062 Z M 199.332031 143.582031 L 199.332031 152.894531 L 208.597656 152.894531 L 208.597656 143.8125 Z M 210.515625 143.863281 L 210.515625 152.894531 L 219.78125 152.894531 L 219.78125 144.09375 Z M 221.695312 144.144531 L 221.695312 152.894531 L 230.964844 152.894531 L 230.964844 144.375 Z M 232.878906 144.417969 L 232.878906 152.894531 L 239.671875 152.894531 L 240.675781 144.617188 Z M 239.441406 154.800781 L 232.878906 154.800781 L 232.878906 163.460938 L 238.394531 163.460938 Z M 230.964844 154.800781 L 221.695312 154.800781 L 221.695312 163.460938 L 230.964844 163.460938 Z M 219.78125 154.800781 L 210.515625 154.800781 L 210.515625 163.460938 L 219.78125 163.460938 Z M 208.597656 154.800781 L 199.332031 154.800781 L 199.332031 163.460938 L 208.597656 163.460938 Z M 197.414062 154.800781 L 188.148438 154.800781 L 188.148438 163.460938 L 197.414062 163.460938 Z M 186.234375 154.800781 L 181.953125 154.800781 L 185.335938 163.460938 L 186.234375 163.460938 Z M 238.164062 165.363281 L 232.878906 165.363281 L 232.878906 171.578125 L 237.457031 171.214844 Z M 230.960938 165.363281 L 221.695312 165.363281 L 221.695312 172.464844 L 230.960938 171.730469 Z M 219.78125 165.363281 L 210.511719 165.363281 L 210.511719 173.351562 L 219.78125 172.625 Z M 208.597656 165.363281 L 199.332031 165.363281 L 199.332031 174.25 L 208.597656 173.511719 Z M 197.414062 165.363281 L 188.148438 165.363281 L 188.148438 170.636719 L 189.90625 175.136719 C 190.136719 175.023438 190.382812 174.957031 190.636719 174.9375 L 197.414062 174.398438 Z M 186.230469 165.363281 L 186.089844 165.363281 L 186.230469 165.753906 Z M 233.175781 200.484375 C 231.367188 200.484375 229.925781 201.925781 229.925781 203.730469 C 229.925781 205.539062 231.367188 206.972656 233.175781 206.972656 C 234.984375 206.972656 236.425781 205.539062 236.425781 203.730469 C 236.425781 201.925781 234.984375 200.484375 233.175781 200.484375 Z M 180.722656 200.484375 C 178.914062 200.484375 177.472656 201.925781 177.472656 203.730469 C 177.472656 205.539062 178.914062 206.972656 180.722656 206.972656 C 182.53125 206.972656 183.976562 205.539062 183.976562 203.730469 C 183.976562 201.925781 182.53125 200.484375 180.722656 200.484375 Z M 233.175781 202.023438 C 234.15625 202.023438 234.941406 202.808594 234.941406 203.789062 C 234.941406 204.769531 234.15625 205.546875 233.175781 205.546875 C 232.195312 205.546875 231.410156 204.769531 231.410156 203.789062 C 231.410156 202.808594 232.195312 202.023438 233.175781 202.023438 Z M 180.722656 202.023438 C 181.707031 202.023438 182.492188 202.808594 182.492188 203.789062 C 182.492188 204.769531 181.707031 205.546875 180.722656 205.546875 C 179.742188 205.546875 178.957031 204.769531 178.957031 203.789062 C 178.957031 202.808594 179.742188 202.023438 180.722656 202.023438 Z M 180.722656 202.023438 " fill-opacity="1" fill-rule="nonzero"/></g><g fill="#231f20" fill-opacity="1"><g transform="translate(132.807267, 251.237693)"><g><path d="M 18.625 -28.875 L 18.625 -23.09375 L 8.6875 -23.09375 L 8.6875 -17.359375 L 18.203125 -17.359375 L 18.203125 -11.578125 L 8.6875 -11.578125 L 8.6875 -5.78125 L 18.625 -5.78125 L 18.625 0 L 2.09375 0 L 2.09375 -28.875 Z M 18.625 -28.875 "/></g></g></g><g fill="#231f20" fill-opacity="1"><g transform="translate(153.102688, 251.237693)"><g><path d="M 8.6875 -28.875 L 8.6875 0 L 2.09375 0 L 2.09375 -28.875 Z M 8.6875 -28.875 "/></g></g></g><g fill="#231f20" fill-opacity="1"><g transform="translate(163.880252, 251.237693)"><g><path d="M 2.09375 -28.875 L 10.46875 -28.875 C 14.476562 -28.875 17.90625 -27.503906 20.75 -24.765625 C 23.601562 -22.023438 25.03125 -18.585938 25.03125 -14.453125 C 25.03125 -10.296875 23.609375 -6.847656 20.765625 -4.109375 C 17.929688 -1.367188 14.5 0 10.46875 0 L 2.09375 0 Z M 8.6875 -5.875 L 9.6875 -5.875 C 12.09375 -5.875 14.0625 -6.6875 15.59375 -8.3125 C 17.125 -9.9375 17.898438 -11.972656 17.921875 -14.421875 C 17.921875 -16.867188 17.15625 -18.910156 15.625 -20.546875 C 14.09375 -22.179688 12.113281 -23 9.6875 -23 L 8.6875 -23 Z M 8.6875 -5.875 "/></g></g></g><g fill="#231f20" fill-opacity="1"><g transform="translate(189.704415, 251.237693)"><g><path d="M 16.765625 -28.875 L 28.421875 0 L 21.34375 0 L 19.21875 -5.78125 L 8.21875 -5.78125 L 6.09375 0 L -0.984375 0 L 10.671875 -28.875 Z M 16.96875 -11.546875 L 13.75 -19.953125 L 13.6875 -19.953125 L 10.46875 -11.546875 Z M 16.96875 -11.546875 "/></g></g></g><g fill="#231f20" fill-opacity="1"><g transform="translate(217.138225, 251.237693)"><g><path d="M 2.09375 -28.875 L 12.421875 -28.875 C 15.203125 -28.875 17.46875 -28.132812 19.21875 -26.65625 C 20.96875 -25.175781 21.84375 -23.054688 21.84375 -20.296875 C 21.84375 -18.171875 21.3125 -16.390625 20.25 -14.953125 C 19.1875 -13.523438 17.742188 -12.519531 15.921875 -11.9375 L 25.859375 0 L 17.5 0 L 8.6875 -11.40625 L 8.6875 0 L 2.09375 0 Z M 8.6875 -16.0625 L 9.453125 -16.0625 C 10.054688 -16.0625 10.566406 -16.070312 10.984375 -16.09375 C 11.410156 -16.125 11.890625 -16.207031 12.421875 -16.34375 C 12.960938 -16.488281 13.394531 -16.6875 13.71875 -16.9375 C 14.039062 -17.195312 14.316406 -17.570312 14.546875 -18.0625 C 14.785156 -18.550781 14.90625 -19.144531 14.90625 -19.84375 C 14.90625 -20.539062 14.785156 -21.132812 14.546875 -21.625 C 14.316406 -22.113281 14.039062 -22.488281 13.71875 -22.75 C 13.394531 -23.007812 12.960938 -23.207031 12.421875 -23.34375 C 11.890625 -23.488281 11.410156 -23.570312 10.984375 -23.59375 C 10.566406 -23.613281 10.054688 -23.625 9.453125 -23.625 L 8.6875 -23.625 Z M 8.6875 -16.0625 "/></g></g></g><g fill="#231f20" fill-opacity="1"><g transform="translate(93.980959, 273.787717)"><g><path d="M 2.109375 0 L 1.09375 0 C 0.9375 0 0.859375 -0.0703125 0.859375 -0.21875 L 0.859375 -4.421875 C 0.859375 -4.578125 0.9375 -4.65625 1.09375 -4.65625 L 2.234375 -4.65625 C 2.378906 -4.65625 2.453125 -4.578125 2.453125 -4.421875 L 2.453125 -4.046875 C 2.453125 -3.816406 2.585938 -3.515625 2.859375 -3.140625 C 3.140625 -2.765625 3.414062 -2.457031 3.6875 -2.21875 C 3.96875 -1.976562 4.335938 -1.769531 4.796875 -1.59375 C 5.253906 -1.414062 5.753906 -1.328125 6.296875 -1.328125 C 7.222656 -1.328125 7.945312 -1.519531 8.46875 -1.90625 C 8.988281 -2.289062 9.25 -2.828125 9.25 -3.515625 C 9.25 -3.910156 9.101562 -4.25 8.8125 -4.53125 C 8.519531 -4.8125 8.140625 -5.035156 7.671875 -5.203125 C 7.203125 -5.367188 6.679688 -5.523438 6.109375 -5.671875 C 5.535156 -5.816406 4.960938 -5.976562 4.390625 -6.15625 C 3.828125 -6.34375 3.3125 -6.566406 2.84375 -6.828125 C 2.375 -7.085938 1.992188 -7.445312 1.703125 -7.90625 C 1.410156 -8.375 1.265625 -8.921875 1.265625 -9.546875 C 1.265625 -10.546875 1.644531 -11.375 2.40625 -12.03125 C 3.164062 -12.695312 4.1875 -13.03125 5.46875 -13.03125 C 7.09375 -13.03125 8.28125 -12.554688 9.03125 -11.609375 L 9 -12.71875 C 9 -12.863281 9.078125 -12.9375 9.234375 -12.9375 L 10.234375 -12.9375 C 10.378906 -12.9375 10.453125 -12.863281 10.453125 -12.71875 L 10.453125 -8.796875 C 10.453125 -8.660156 10.378906 -8.59375 10.234375 -8.59375 L 9.109375 -8.59375 C 8.960938 -8.59375 8.890625 -8.660156 8.890625 -8.796875 L 8.890625 -9.3125 C 8.890625 -9.800781 8.613281 -10.296875 8.0625 -10.796875 C 7.507812 -11.304688 6.703125 -11.5625 5.640625 -11.5625 C 4.847656 -11.5625 4.207031 -11.367188 3.71875 -10.984375 C 3.226562 -10.609375 2.984375 -10.128906 2.984375 -9.546875 C 2.984375 -9.117188 3.132812 -8.753906 3.4375 -8.453125 C 3.738281 -8.160156 4.128906 -7.921875 4.609375 -7.734375 C 5.085938 -7.554688 5.613281 -7.390625 6.1875 -7.234375 C 6.769531 -7.085938 7.347656 -6.925781 7.921875 -6.75 C 8.492188 -6.570312 9.019531 -6.351562 9.5 -6.09375 C 9.976562 -5.84375 10.367188 -5.5 10.671875 -5.0625 C 10.972656 -4.625 11.125 -4.109375 11.125 -3.515625 C 11.125 -2.453125 10.742188 -1.578125 9.984375 -0.890625 C 9.234375 -0.210938 8.109375 0.125 6.609375 0.125 C 5.503906 0.125 4.59375 -0.09375 3.875 -0.53125 C 3.15625 -0.976562 2.628906 -1.460938 2.296875 -1.984375 L 2.328125 -0.21875 C 2.328125 -0.0703125 2.253906 0 2.109375 0 Z M 2.109375 0 "/></g></g></g><g fill="#231f20" fill-opacity="1"><g transform="translate(105.968919, 273.787717)"><g><path d="M 10.265625 0 L 8.546875 0 C 8.035156 0 7.78125 -0.25 7.78125 -0.75 L 7.78125 -5.484375 C 7.78125 -6.179688 7.609375 -6.722656 7.265625 -7.109375 C 6.929688 -7.492188 6.441406 -7.6875 5.796875 -7.6875 C 5.304688 -7.6875 4.929688 -7.609375 4.671875 -7.453125 C 4.410156 -7.304688 4.210938 -7.175781 4.078125 -7.0625 C 3.953125 -6.945312 3.847656 -6.835938 3.765625 -6.734375 C 3.617188 -6.535156 3.5 -6.335938 3.40625 -6.140625 L 3.40625 -1.203125 L 4.359375 -1.203125 C 4.515625 -1.203125 4.59375 -1.128906 4.59375 -0.984375 L 4.59375 -0.21875 C 4.59375 -0.0703125 4.515625 0 4.359375 0 L 0.921875 0 C 0.765625 0 0.6875 -0.0703125 0.6875 -0.21875 L 0.6875 -0.984375 C 0.6875 -1.128906 0.765625 -1.203125 0.921875 -1.203125 L 1.90625 -1.203125 L 1.90625 -11.71875 L 0.921875 -11.71875 C 0.765625 -11.71875 0.6875 -11.789062 0.6875 -11.9375 L 0.6875 -12.703125 C 0.6875 -12.847656 0.765625 -12.921875 0.921875 -12.921875 L 3.1875 -12.921875 C 3.332031 -12.921875 3.40625 -12.847656 3.40625 -12.703125 L 3.40625 -8.6875 C 3.40625 -8.289062 3.378906 -7.925781 3.328125 -7.59375 L 3.359375 -7.59375 C 3.953125 -8.519531 4.890625 -8.984375 6.171875 -8.984375 C 7.128906 -8.984375 7.878906 -8.703125 8.421875 -8.140625 C 8.960938 -7.578125 9.238281 -6.8125 9.25 -5.84375 L 9.25 -1.203125 L 10.265625 -1.203125 C 10.421875 -1.203125 10.5 -1.128906 10.5 -0.984375 L 10.5 -0.21875 C 10.5 -0.0703125 10.421875 0 10.265625 0 Z M 10.265625 0 "/></g></g></g><g fill="#231f20" fill-opacity="1"><g transform="translate(117.146889, 273.787717)"><g><path d="M 8.375 -1.125 C 7.539062 -0.289062 6.46875 0.125 5.15625 0.125 C 3.851562 0.125 2.78125 -0.289062 1.9375 -1.125 C 1.101562 -1.957031 0.6875 -3.066406 0.6875 -4.453125 C 0.6875 -5.835938 1.109375 -6.9375 1.953125 -7.75 C 2.804688 -8.570312 3.878906 -8.984375 5.171875 -8.984375 C 6.460938 -8.984375 7.53125 -8.570312 8.375 -7.75 C 9.21875 -6.925781 9.640625 -5.828125 9.640625 -4.453125 C 9.640625 -3.078125 9.21875 -1.96875 8.375 -1.125 Z M 2.203125 -4.4375 C 2.203125 -3.457031 2.488281 -2.660156 3.0625 -2.046875 C 3.632812 -1.441406 4.335938 -1.140625 5.171875 -1.140625 C 6.003906 -1.140625 6.707031 -1.441406 7.28125 -2.046875 C 7.863281 -2.660156 8.15625 -3.457031 8.15625 -4.4375 C 8.15625 -5.425781 7.863281 -6.21875 7.28125 -6.8125 C 6.695312 -7.414062 5.992188 -7.71875 5.171875 -7.71875 C 4.359375 -7.71875 3.660156 -7.414062 3.078125 -6.8125 C 2.492188 -6.21875 2.203125 -5.425781 2.203125 -4.4375 Z M 2.203125 -4.4375 "/></g></g></g><g fill="#231f20" fill-opacity="1"><g transform="translate(127.496857, 273.787717)"><g><path d="M 4.53125 4.046875 L 0.921875 4.046875 C 0.765625 4.046875 0.6875 3.972656 0.6875 3.828125 L 0.6875 3.0625 C 0.6875 2.914062 0.765625 2.84375 0.921875 2.84375 L 1.921875 2.84375 L 1.921875 -7.65625 L 0.953125 -7.65625 C 0.796875 -7.65625 0.71875 -7.722656 0.71875 -7.859375 L 0.71875 -8.640625 C 0.71875 -8.785156 0.796875 -8.859375 0.953125 -8.859375 L 3.0625 -8.859375 C 3.21875 -8.859375 3.296875 -8.785156 3.296875 -8.640625 L 3.28125 -7.21875 L 3.296875 -7.21875 C 3.523438 -7.707031 3.894531 -8.125 4.40625 -8.46875 C 4.914062 -8.8125 5.539062 -8.984375 6.28125 -8.984375 C 7.488281 -8.984375 8.460938 -8.570312 9.203125 -7.75 C 9.953125 -6.925781 10.328125 -5.832031 10.328125 -4.46875 C 10.328125 -3.113281 9.960938 -2.007812 9.234375 -1.15625 C 8.503906 -0.300781 7.523438 0.125 6.296875 0.125 C 5.554688 0.125 4.9375 -0.046875 4.4375 -0.390625 C 3.9375 -0.734375 3.578125 -1.148438 3.359375 -1.640625 L 3.3125 -1.640625 C 3.34375 -1.253906 3.359375 -0.976562 3.359375 -0.8125 L 3.359375 2.84375 L 4.53125 2.84375 C 4.6875 2.84375 4.765625 2.914062 4.765625 3.0625 L 4.765625 3.828125 C 4.765625 3.972656 4.6875 4.046875 4.53125 4.046875 Z M 3.328125 -4.390625 C 3.328125 -3.347656 3.597656 -2.546875 4.140625 -1.984375 C 4.691406 -1.421875 5.351562 -1.140625 6.125 -1.140625 C 6.90625 -1.140625 7.554688 -1.441406 8.078125 -2.046875 C 8.597656 -2.648438 8.859375 -3.445312 8.859375 -4.4375 C 8.859375 -5.425781 8.597656 -6.21875 8.078125 -6.8125 C 7.554688 -7.414062 6.90625 -7.71875 6.125 -7.71875 C 5.34375 -7.71875 4.679688 -7.421875 4.140625 -6.828125 C 3.597656 -6.242188 3.328125 -5.429688 3.328125 -4.390625 Z M 3.328125 -4.390625 "/></g></g></g><g fill="#231f20" fill-opacity="1"><g transform="translate(138.530826, 273.787717)"><g><path d="M 4.53125 4.046875 L 0.921875 4.046875 C 0.765625 4.046875 0.6875 3.972656 0.6875 3.828125 L 0.6875 3.0625 C 0.6875 2.914062 0.765625 2.84375 0.921875 2.84375 L 1.921875 2.84375 L 1.921875 -7.65625 L 0.953125 -7.65625 C 0.796875 -7.65625 0.71875 -7.722656 0.71875 -7.859375 L 0.71875 -8.640625 C 0.71875 -8.785156 0.796875 -8.859375 0.953125 -8.859375 L 3.0625 -8.859375 C 3.21875 -8.859375 3.296875 -8.785156 3.296875 -8.640625 L 3.28125 -7.21875 L 3.296875 -7.21875 C 3.523438 -7.707031 3.894531 -8.125 4.40625 -8.46875 C 4.914062 -8.8125 5.539062 -8.984375 6.28125 -8.984375 C 7.488281 -8.984375 8.460938 -8.570312 9.203125 -7.75 C 9.953125 -6.925781 10.328125 -5.832031 10.328125 -4.46875 C 10.328125 -3.113281 9.960938 -2.007812 9.234375 -1.15625 C 8.503906 -0.300781 7.523438 0.125 6.296875 0.125 C 5.554688 0.125 4.9375 -0.046875 4.4375 -0.390625 C 3.9375 -0.734375 3.578125 -1.148438 3.359375 -1.640625 L 3.3125 -1.640625 C 3.34375 -1.253906 3.359375 -0.976562 3.359375 -0.8125 L 3.359375 2.84375 L 4.53125 2.84375 C 4.6875 2.84375 4.765625 2.914062 4.765625 3.0625 L 4.765625 3.828125 C 4.765625 3.972656 4.6875 4.046875 4.53125 4.046875 Z M 3.328125 -4.390625 C 3.328125 -3.347656 3.597656 -2.546875 4.140625 -1.984375 C 4.691406 -1.421875 5.351562 -1.140625 6.125 -1.140625 C 6.90625 -1.140625 7.554688 -1.441406 8.078125 -2.046875 C 8.597656 -2.648438 8.859375 -3.445312 8.859375 -4.4375 C 8.859375 -5.425781 8.597656 -6.21875 8.078125 -6.8125 C 7.554688 -7.414062 6.90625 -7.71875 6.125 -7.71875 C 5.34375 -7.71875 4.679688 -7.421875 4.140625 -6.828125 C 3.597656 -6.242188 3.328125 -5.429688 3.328125 -4.390625 Z M 3.328125 -4.390625 "/></g></g></g><g fill="#231f20" fill-opacity="1"><g transform="translate(149.564795, 273.787717)"><g><path d="M 4.359375 0 L 0.921875 0 C 0.765625 0 0.6875 -0.0703125 0.6875 -0.21875 L 0.6875 -0.984375 C 0.6875 -1.128906 0.765625 -1.203125 0.921875 -1.203125 L 1.90625 -1.203125 L 1.90625 -7.65625 L 0.921875 -7.65625 C 0.765625 -7.65625 0.6875 -7.722656 0.6875 -7.859375 L 0.6875 -8.640625 C 0.6875 -8.785156 0.765625 -8.859375 0.921875 -8.859375 L 3.1875 -8.859375 C 3.332031 -8.859375 3.40625 -8.785156 3.40625 -8.640625 L 3.40625 -1.203125 L 4.359375 -1.203125 C 4.515625 -1.203125 4.59375 -1.128906 4.59375 -0.984375 L 4.59375 -0.21875 C 4.59375 -0.0703125 4.515625 0 4.359375 0 Z M 3.34375 -11.515625 C 3.539062 -11.316406 3.640625 -11.078125 3.640625 -10.796875 C 3.640625 -10.523438 3.539062 -10.289062 3.34375 -10.09375 C 3.144531 -9.90625 2.90625 -9.8125 2.625 -9.8125 C 2.351562 -9.8125 2.117188 -9.90625 1.921875 -10.09375 C 1.722656 -10.289062 1.625 -10.523438 1.625 -10.796875 C 1.625 -11.078125 1.722656 -11.316406 1.921875 -11.515625 C 2.117188 -11.722656 2.351562 -11.828125 2.625 -11.828125 C 2.90625 -11.828125 3.144531 -11.722656 3.34375 -11.515625 Z M 3.34375 -11.515625 "/></g></g></g><g fill="#231f20" fill-opacity="1"><g transform="translate(154.838781, 273.787717)"><g><path d="M 10.265625 0 L 8.546875 0 C 8.035156 0 7.78125 -0.25 7.78125 -0.75 L 7.78125 -5.484375 C 7.78125 -6.179688 7.609375 -6.722656 7.265625 -7.109375 C 6.929688 -7.492188 6.441406 -7.6875 5.796875 -7.6875 C 4.867188 -7.6875 4.148438 -7.304688 3.640625 -6.546875 C 3.578125 -6.472656 3.5 -6.34375 3.40625 -6.15625 L 3.40625 -1.203125 L 4.359375 -1.203125 C 4.515625 -1.203125 4.59375 -1.128906 4.59375 -0.984375 L 4.59375 -0.21875 C 4.59375 -0.0703125 4.515625 0 4.359375 0 L 0.921875 0 C 0.765625 0 0.6875 -0.0703125 0.6875 -0.21875 L 0.6875 -0.984375 C 0.6875 -1.128906 0.765625 -1.203125 0.921875 -1.203125 L 1.90625 -1.203125 L 1.90625 -7.65625 L 0.921875 -7.65625 C 0.765625 -7.65625 0.6875 -7.722656 0.6875 -7.859375 L 0.6875 -8.640625 C 0.6875 -8.785156 0.765625 -8.859375 0.921875 -8.859375 L 3.03125 -8.859375 C 3.1875 -8.859375 3.265625 -8.785156 3.265625 -8.640625 L 3.21875 -7.421875 L 3.28125 -7.421875 C 3.90625 -8.460938 4.867188 -8.984375 6.171875 -8.984375 C 7.128906 -8.984375 7.878906 -8.703125 8.421875 -8.140625 C 8.960938 -7.578125 9.238281 -6.8125 9.25 -5.84375 L 9.25 -1.203125 L 10.265625 -1.203125 C 10.421875 -1.203125 10.5 -1.128906 10.5 -0.984375 L 10.5 -0.21875 C 10.5 -0.0703125 10.421875 0 10.265625 0 Z M 10.265625 0 "/></g></g></g><g fill="#231f20" fill-opacity="1"><g transform="translate(166.016752, 273.787717)"><g><path d="M 4.828125 4.21875 C 4.222656 4.21875 3.765625 4.171875 3.453125 4.078125 C 3.148438 3.992188 2.90625 3.921875 2.71875 3.859375 C 2.539062 3.796875 2.382812 3.726562 2.25 3.65625 C 2.113281 3.59375 1.988281 3.523438 1.875 3.453125 C 1.34375 3.109375 1.144531 2.859375 1.28125 2.703125 L 1.75 2.03125 C 1.820312 1.925781 1.921875 1.921875 2.046875 2.015625 C 2.054688 2.015625 2.09375 2.039062 2.15625 2.09375 C 2.226562 2.144531 2.296875 2.195312 2.359375 2.25 C 2.429688 2.300781 2.523438 2.359375 2.640625 2.421875 C 2.753906 2.484375 2.878906 2.539062 3.015625 2.59375 C 3.160156 2.65625 3.316406 2.707031 3.484375 2.75 C 3.890625 2.863281 4.332031 2.921875 4.8125 2.921875 C 5.675781 2.921875 6.367188 2.710938 6.890625 2.296875 C 7.410156 1.878906 7.671875 1.226562 7.671875 0.34375 L 7.671875 -1.703125 C 7.453125 -1.203125 7.09375 -0.769531 6.59375 -0.40625 C 6.09375 -0.0507812 5.472656 0.125 4.734375 0.125 C 3.503906 0.125 2.519531 -0.300781 1.78125 -1.15625 C 1.050781 -2.007812 0.6875 -3.113281 0.6875 -4.46875 C 0.6875 -5.820312 1.0625 -6.910156 1.8125 -7.734375 C 2.5625 -8.566406 3.535156 -8.984375 4.734375 -8.984375 C 5.472656 -8.984375 6.097656 -8.8125 6.609375 -8.46875 C 7.117188 -8.125 7.488281 -7.707031 7.71875 -7.21875 L 7.765625 -7.21875 L 7.734375 -8.640625 C 7.734375 -8.785156 7.804688 -8.859375 7.953125 -8.859375 L 10.078125 -8.859375 C 10.222656 -8.859375 10.296875 -8.785156 10.296875 -8.640625 L 10.296875 -7.859375 C 10.296875 -7.722656 10.222656 -7.65625 10.078125 -7.65625 L 9.109375 -7.65625 L 9.109375 0.34375 C 9.109375 1.625 8.710938 2.585938 7.921875 3.234375 C 7.140625 3.890625 6.109375 4.21875 4.828125 4.21875 Z M 2.15625 -4.4375 C 2.15625 -3.445312 2.421875 -2.648438 2.953125 -2.046875 C 3.484375 -1.441406 4.144531 -1.140625 4.9375 -1.140625 C 5.726562 -1.140625 6.382812 -1.4375 6.90625 -2.03125 C 7.425781 -2.632812 7.6875 -3.4375 7.6875 -4.4375 C 7.6875 -5.445312 7.425781 -6.242188 6.90625 -6.828125 C 6.382812 -7.421875 5.726562 -7.71875 4.9375 -7.71875 C 4.144531 -7.71875 3.484375 -7.414062 2.953125 -6.8125 C 2.421875 -6.21875 2.15625 -5.425781 2.15625 -4.4375 Z M 2.15625 -4.4375 "/></g></g></g><g fill="#231f20" fill-opacity="1"><g transform="translate(177.014718, 273.787717)"><g/></g></g><g fill="#231f20" fill-opacity="1"><g transform="translate(182.648701, 273.787717)"><g><path d="M 11.796875 0 L 10.21875 0 C 9.789062 0 9.429688 -0.285156 9.140625 -0.859375 L 7.453125 -4.296875 C 7.304688 -4.597656 7.148438 -4.820312 6.984375 -4.96875 C 6.828125 -5.113281 6.601562 -5.191406 6.3125 -5.203125 L 4.03125 -5.203125 L 4.03125 -1.34375 L 5.65625 -1.34375 C 5.800781 -1.34375 5.875 -1.273438 5.875 -1.140625 L 5.875 -0.21875 C 5.875 -0.0703125 5.800781 0 5.65625 0 L 1.09375 0 C 0.9375 0 0.859375 -0.0703125 0.859375 -0.21875 L 0.859375 -1.140625 C 0.859375 -1.273438 0.9375 -1.34375 1.09375 -1.34375 L 2.46875 -1.34375 L 2.46875 -11.578125 L 1.09375 -11.578125 C 0.9375 -11.578125 0.859375 -11.648438 0.859375 -11.796875 L 0.859375 -12.703125 C 0.859375 -12.847656 0.9375 -12.921875 1.09375 -12.921875 L 6.640625 -12.921875 C 7.921875 -12.921875 8.960938 -12.582031 9.765625 -11.90625 C 10.578125 -11.226562 10.984375 -10.269531 10.984375 -9.03125 C 10.984375 -7.144531 10.097656 -5.972656 8.328125 -5.515625 C 8.554688 -5.328125 8.84375 -4.921875 9.1875 -4.296875 L 10.6875 -1.34375 L 11.796875 -1.34375 C 11.929688 -1.34375 12 -1.273438 12 -1.140625 L 12 -0.21875 C 12 -0.0703125 11.929688 0 11.796875 0 Z M 4.03125 -6.484375 L 6.34375 -6.484375 C 8.375 -6.484375 9.390625 -7.316406 9.390625 -8.984375 C 9.390625 -10.710938 8.375 -11.578125 6.34375 -11.578125 L 4.03125 -11.578125 Z M 4.03125 -6.484375 "/></g></g></g><g fill="#231f20" fill-opacity="1"><g transform="translate(195.518657, 273.787717)"><g><path d="M 8.6875 -4.25 L 2.21875 -4.25 C 2.257812 -3.25 2.570312 -2.476562 3.15625 -1.9375 C 3.738281 -1.40625 4.394531 -1.140625 5.125 -1.140625 C 5.863281 -1.140625 6.492188 -1.289062 7.015625 -1.59375 C 7.535156 -1.90625 7.882812 -2.210938 8.0625 -2.515625 C 8.15625 -2.640625 8.265625 -2.660156 8.390625 -2.578125 L 8.875 -2.09375 C 8.945312 -2.019531 8.984375 -1.953125 8.984375 -1.890625 C 8.984375 -1.835938 8.953125 -1.769531 8.890625 -1.6875 C 8.835938 -1.601562 8.726562 -1.472656 8.5625 -1.296875 C 8.394531 -1.117188 8.15625 -0.914062 7.84375 -0.6875 C 7.539062 -0.457031 7.144531 -0.265625 6.65625 -0.109375 C 6.175781 0.046875 5.660156 0.125 5.109375 0.125 C 3.847656 0.125 2.796875 -0.285156 1.953125 -1.109375 C 1.109375 -1.941406 0.6875 -3.054688 0.6875 -4.453125 C 0.6875 -5.847656 1.101562 -6.953125 1.9375 -7.765625 C 2.78125 -8.578125 3.8125 -8.984375 5.03125 -8.984375 C 6.25 -8.984375 7.207031 -8.585938 7.90625 -7.796875 C 8.601562 -7.015625 8.953125 -5.957031 8.953125 -4.625 C 8.953125 -4.570312 8.953125 -4.523438 8.953125 -4.484375 C 8.953125 -4.328125 8.863281 -4.25 8.6875 -4.25 Z M 7.453125 -5.34375 C 7.410156 -6.09375 7.175781 -6.6875 6.75 -7.125 C 6.320312 -7.570312 5.742188 -7.796875 5.015625 -7.796875 C 4.296875 -7.796875 3.675781 -7.585938 3.15625 -7.171875 C 2.644531 -6.765625 2.34375 -6.15625 2.25 -5.34375 Z M 7.453125 -5.34375 "/></g></g></g><g fill="#231f20" fill-opacity="1"><g transform="translate(205.202624, 273.787717)"><g><path d="M 4.359375 0 L 0.921875 0 C 0.765625 0 0.6875 -0.0703125 0.6875 -0.21875 L 0.6875 -0.984375 C 0.6875 -1.128906 0.765625 -1.203125 0.921875 -1.203125 L 1.90625 -1.203125 L 1.90625 -7.65625 L 0.921875 -7.65625 C 0.765625 -7.65625 0.6875 -7.722656 0.6875 -7.859375 L 0.6875 -8.640625 C 0.6875 -8.785156 0.765625 -8.859375 0.921875 -8.859375 L 3.1875 -8.859375 C 3.332031 -8.859375 3.40625 -8.785156 3.40625 -8.640625 L 3.40625 -1.203125 L 4.359375 -1.203125 C 4.515625 -1.203125 4.59375 -1.128906 4.59375 -0.984375 L 4.59375 -0.21875 C 4.59375 -0.0703125 4.515625 0 4.359375 0 Z M 3.34375 -11.515625 C 3.539062 -11.316406 3.640625 -11.078125 3.640625 -10.796875 C 3.640625 -10.523438 3.539062 -10.289062 3.34375 -10.09375 C 3.144531 -9.90625 2.90625 -9.8125 2.625 -9.8125 C 2.351562 -9.8125 2.117188 -9.90625 1.921875 -10.09375 C 1.722656 -10.289062 1.625 -10.523438 1.625 -10.796875 C 1.625 -11.078125 1.722656 -11.316406 1.921875 -11.515625 C 2.117188 -11.722656 2.351562 -11.828125 2.625 -11.828125 C 2.90625 -11.828125 3.144531 -11.722656 3.34375 -11.515625 Z M 3.34375 -11.515625 "/></g></g></g><g fill="#231f20" fill-opacity="1"><g transform="translate(210.476611, 273.787717)"><g><path d="M 10.265625 0 L 8.546875 0 C 8.035156 0 7.78125 -0.25 7.78125 -0.75 L 7.78125 -5.484375 C 7.78125 -6.179688 7.609375 -6.722656 7.265625 -7.109375 C 6.929688 -7.492188 6.441406 -7.6875 5.796875 -7.6875 C 4.867188 -7.6875 4.148438 -7.304688 3.640625 -6.546875 C 3.578125 -6.472656 3.5 -6.34375 3.40625 -6.15625 L 3.40625 -1.203125 L 4.359375 -1.203125 C 4.515625 -1.203125 4.59375 -1.128906 4.59375 -0.984375 L 4.59375 -0.21875 C 4.59375 -0.0703125 4.515625 0 4.359375 0 L 0.921875 0 C 0.765625 0 0.6875 -0.0703125 0.6875 -0.21875 L 0.6875 -0.984375 C 0.6875 -1.128906 0.765625 -1.203125 0.921875 -1.203125 L 1.90625 -1.203125 L 1.90625 -7.65625 L 0.921875 -7.65625 C 0.765625 -7.65625 0.6875 -7.722656 0.6875 -7.859375 L 0.6875 -8.640625 C 0.6875 -8.785156 0.765625 -8.859375 0.921875 -8.859375 L 3.03125 -8.859375 C 3.1875 -8.859375 3.265625 -8.785156 3.265625 -8.640625 L 3.21875 -7.421875 L 3.28125 -7.421875 C 3.90625 -8.460938 4.867188 -8.984375 6.171875 -8.984375 C 7.128906 -8.984375 7.878906 -8.703125 8.421875 -8.140625 C 8.960938 -7.578125 9.238281 -6.8125 9.25 -5.84375 L 9.25 -1.203125 L 10.265625 -1.203125 C 10.421875 -1.203125 10.5 -1.128906 10.5 -0.984375 L 10.5 -0.21875 C 10.5 -0.0703125 10.421875 0 10.265625 0 Z M 10.265625 0 "/></g></g></g><g fill="#231f20" fill-opacity="1"><g transform="translate(221.654581, 273.787717)"><g><path d="M 5.875 0 L 4.65625 0 C 4.539062 0 4.457031 -0.0195312 4.40625 -0.0625 C 4.363281 -0.101562 4.316406 -0.191406 4.265625 -0.328125 L 1.40625 -7.65625 L 0.390625 -7.65625 C 0.253906 -7.65625 0.1875 -7.722656 0.1875 -7.859375 L 0.1875 -8.640625 C 0.1875 -8.785156 0.253906 -8.859375 0.390625 -8.859375 L 3.75 -8.859375 C 3.882812 -8.859375 3.953125 -8.785156 3.953125 -8.640625 L 3.953125 -7.859375 C 3.953125 -7.722656 3.882812 -7.65625 3.75 -7.65625 L 2.953125 -7.65625 L 5.25 -1.578125 L 5.296875 -1.578125 L 7.625 -7.65625 L 6.828125 -7.65625 C 6.679688 -7.65625 6.609375 -7.722656 6.609375 -7.859375 L 6.609375 -8.640625 C 6.609375 -8.785156 6.679688 -8.859375 6.828125 -8.859375 L 10.171875 -8.859375 C 10.328125 -8.859375 10.40625 -8.785156 10.40625 -8.640625 L 10.40625 -7.859375 C 10.40625 -7.722656 10.328125 -7.65625 10.171875 -7.65625 L 9.1875 -7.65625 L 6.28125 -0.328125 C 6.207031 -0.109375 6.070312 0 5.875 0 Z M 5.875 0 "/></g></g></g><g fill="#231f20" fill-opacity="1"><g transform="translate(232.238545, 273.787717)"><g><path d="M 8.6875 -4.25 L 2.21875 -4.25 C 2.257812 -3.25 2.570312 -2.476562 3.15625 -1.9375 C 3.738281 -1.40625 4.394531 -1.140625 5.125 -1.140625 C 5.863281 -1.140625 6.492188 -1.289062 7.015625 -1.59375 C 7.535156 -1.90625 7.882812 -2.210938 8.0625 -2.515625 C 8.15625 -2.640625 8.265625 -2.660156 8.390625 -2.578125 L 8.875 -2.09375 C 8.945312 -2.019531 8.984375 -1.953125 8.984375 -1.890625 C 8.984375 -1.835938 8.953125 -1.769531 8.890625 -1.6875 C 8.835938 -1.601562 8.726562 -1.472656 8.5625 -1.296875 C 8.394531 -1.117188 8.15625 -0.914062 7.84375 -0.6875 C 7.539062 -0.457031 7.144531 -0.265625 6.65625 -0.109375 C 6.175781 0.046875 5.660156 0.125 5.109375 0.125 C 3.847656 0.125 2.796875 -0.285156 1.953125 -1.109375 C 1.109375 -1.941406 0.6875 -3.054688 0.6875 -4.453125 C 0.6875 -5.847656 1.101562 -6.953125 1.9375 -7.765625 C 2.78125 -8.578125 3.8125 -8.984375 5.03125 -8.984375 C 6.25 -8.984375 7.207031 -8.585938 7.90625 -7.796875 C 8.601562 -7.015625 8.953125 -5.957031 8.953125 -4.625 C 8.953125 -4.570312 8.953125 -4.523438 8.953125 -4.484375 C 8.953125 -4.328125 8.863281 -4.25 8.6875 -4.25 Z M 7.453125 -5.34375 C 7.410156 -6.09375 7.175781 -6.6875 6.75 -7.125 C 6.320312 -7.570312 5.742188 -7.796875 5.015625 -7.796875 C 4.296875 -7.796875 3.675781 -7.585938 3.15625 -7.171875 C 2.644531 -6.765625 2.34375 -6.15625 2.25 -5.34375 Z M 7.453125 -5.34375 "/></g></g></g><g fill="#231f20" fill-opacity="1"><g transform="translate(241.922512, 273.787717)"><g><path d="M 10.265625 0 L 8.546875 0 C 8.035156 0 7.78125 -0.25 7.78125 -0.75 L 7.78125 -5.484375 C 7.78125 -6.179688 7.609375 -6.722656 7.265625 -7.109375 C 6.929688 -7.492188 6.441406 -7.6875 5.796875 -7.6875 C 4.867188 -7.6875 4.148438 -7.304688 3.640625 -6.546875 C 3.578125 -6.472656 3.5 -6.34375 3.40625 -6.15625 L 3.40625 -1.203125 L 4.359375 -1.203125 C 4.515625 -1.203125 4.59375 -1.128906 4.59375 -0.984375 L 4.59375 -0.21875 C 4.59375 -0.0703125 4.515625 0 4.359375 0 L 0.921875 0 C 0.765625 0 0.6875 -0.0703125 0.6875 -0.21875 L 0.6875 -0.984375 C 0.6875 -1.128906 0.765625 -1.203125 0.921875 -1.203125 L 1.90625 -1.203125 L 1.90625 -7.65625 L 0.921875 -7.65625 C 0.765625 -7.65625 0.6875 -7.722656 0.6875 -7.859375 L 0.6875 -8.640625 C 0.6875 -8.785156 0.765625 -8.859375 0.921875 -8.859375 L 3.03125 -8.859375 C 3.1875 -8.859375 3.265625 -8.785156 3.265625 -8.640625 L 3.21875 -7.421875 L 3.28125 -7.421875 C 3.90625 -8.460938 4.867188 -8.984375 6.171875 -8.984375 C 7.128906 -8.984375 7.878906 -8.703125 8.421875 -8.140625 C 8.960938 -7.578125 9.238281 -6.8125 9.25 -5.84375 L 9.25 -1.203125 L 10.265625 -1.203125 C 10.421875 -1.203125 10.5 -1.128906 10.5 -0.984375 L 10.5 -0.21875 C 10.5 -0.0703125 10.421875 0 10.265625 0 Z M 10.265625 0 "/></g></g></g><g fill="#231f20" fill-opacity="1"><g transform="translate(253.100483, 273.787717)"><g><path d="M 6.703125 -0.921875 C 6.742188 -0.867188 6.765625 -0.816406 6.765625 -0.765625 C 6.765625 -0.710938 6.726562 -0.648438 6.65625 -0.578125 C 6.132812 -0.109375 5.472656 0.125 4.671875 0.125 C 3.867188 0.125 3.210938 -0.132812 2.703125 -0.65625 C 2.191406 -1.175781 1.9375 -1.9375 1.9375 -2.9375 L 1.9375 -7.65625 L 0.9375 -7.65625 C 0.769531 -7.65625 0.6875 -7.734375 0.6875 -7.890625 L 0.6875 -8.625 C 0.6875 -8.78125 0.769531 -8.859375 0.9375 -8.859375 L 1.9375 -8.859375 L 1.9375 -10.671875 C 1.9375 -10.835938 2.023438 -10.921875 2.203125 -10.921875 L 3.203125 -10.921875 C 3.359375 -10.921875 3.4375 -10.835938 3.4375 -10.671875 L 3.4375 -8.859375 L 5.71875 -8.859375 C 5.882812 -8.859375 5.96875 -8.78125 5.96875 -8.625 L 5.96875 -7.890625 C 5.96875 -7.734375 5.882812 -7.65625 5.71875 -7.65625 L 3.4375 -7.65625 L 3.4375 -2.96875 C 3.4375 -2.363281 3.570312 -1.910156 3.84375 -1.609375 C 4.113281 -1.304688 4.472656 -1.15625 4.921875 -1.15625 C 5.367188 -1.15625 5.707031 -1.269531 5.9375 -1.5 C 6.0625 -1.601562 6.171875 -1.59375 6.265625 -1.46875 Z M 6.703125 -0.921875 "/></g></g></g><g fill="#231f20" fill-opacity="1"><g transform="translate(260.318465, 273.787717)"><g><path d="M 8.6875 -4.25 L 2.21875 -4.25 C 2.257812 -3.25 2.570312 -2.476562 3.15625 -1.9375 C 3.738281 -1.40625 4.394531 -1.140625 5.125 -1.140625 C 5.863281 -1.140625 6.492188 -1.289062 7.015625 -1.59375 C 7.535156 -1.90625 7.882812 -2.210938 8.0625 -2.515625 C 8.15625 -2.640625 8.265625 -2.660156 8.390625 -2.578125 L 8.875 -2.09375 C 8.945312 -2.019531 8.984375 -1.953125 8.984375 -1.890625 C 8.984375 -1.835938 8.953125 -1.769531 8.890625 -1.6875 C 8.835938 -1.601562 8.726562 -1.472656 8.5625 -1.296875 C 8.394531 -1.117188 8.15625 -0.914062 7.84375 -0.6875 C 7.539062 -0.457031 7.144531 -0.265625 6.65625 -0.109375 C 6.175781 0.046875 5.660156 0.125 5.109375 0.125 C 3.847656 0.125 2.796875 -0.285156 1.953125 -1.109375 C 1.109375 -1.941406 0.6875 -3.054688 0.6875 -4.453125 C 0.6875 -5.847656 1.101562 -6.953125 1.9375 -7.765625 C 2.78125 -8.578125 3.8125 -8.984375 5.03125 -8.984375 C 6.25 -8.984375 7.207031 -8.585938 7.90625 -7.796875 C 8.601562 -7.015625 8.953125 -5.957031 8.953125 -4.625 C 8.953125 -4.570312 8.953125 -4.523438 8.953125 -4.484375 C 8.953125 -4.328125 8.863281 -4.25 8.6875 -4.25 Z M 7.453125 -5.34375 C 7.410156 -6.09375 7.175781 -6.6875 6.75 -7.125 C 6.320312 -7.570312 5.742188 -7.796875 5.015625 -7.796875 C 4.296875 -7.796875 3.675781 -7.585938 3.15625 -7.171875 C 2.644531 -6.765625 2.34375 -6.15625 2.25 -5.34375 Z M 7.453125 -5.34375 "/></g></g></g><g fill="#231f20" fill-opacity="1"><g transform="translate(270.002432, 273.787717)"><g><path d="M 10.109375 0 L 8.546875 0 C 8.273438 0 8.078125 -0.0546875 7.953125 -0.171875 C 7.828125 -0.285156 7.765625 -0.476562 7.765625 -0.75 L 7.765625 -1.765625 L 7.734375 -1.765625 C 7.546875 -1.265625 7.1875 -0.820312 6.65625 -0.4375 C 6.132812 -0.0625 5.492188 0.125 4.734375 0.125 C 3.535156 0.125 2.5625 -0.289062 1.8125 -1.125 C 1.0625 -1.96875 0.6875 -3.070312 0.6875 -4.4375 C 0.6875 -5.800781 1.0625 -6.898438 1.8125 -7.734375 C 2.5625 -8.566406 3.539062 -8.984375 4.75 -8.984375 C 5.5 -8.984375 6.117188 -8.8125 6.609375 -8.46875 C 7.097656 -8.125 7.453125 -7.707031 7.671875 -7.21875 L 7.6875 -7.21875 C 7.675781 -7.457031 7.671875 -7.65625 7.671875 -7.8125 L 7.671875 -11.71875 L 6.65625 -11.71875 C 6.5 -11.71875 6.421875 -11.789062 6.421875 -11.9375 L 6.421875 -12.703125 C 6.421875 -12.847656 6.5 -12.921875 6.65625 -12.921875 L 8.890625 -12.921875 C 9.035156 -12.921875 9.109375 -12.847656 9.109375 -12.703125 L 9.109375 -1.203125 L 10.109375 -1.203125 C 10.253906 -1.203125 10.328125 -1.128906 10.328125 -0.984375 L 10.328125 -0.21875 C 10.328125 -0.0703125 10.253906 0 10.109375 0 Z M 2.15625 -4.453125 C 2.15625 -3.460938 2.414062 -2.660156 2.9375 -2.046875 C 3.457031 -1.441406 4.117188 -1.140625 4.921875 -1.140625 C 5.734375 -1.140625 6.394531 -1.441406 6.90625 -2.046875 C 7.425781 -2.648438 7.6875 -3.453125 7.6875 -4.453125 C 7.6875 -5.460938 7.421875 -6.257812 6.890625 -6.84375 C 6.367188 -7.425781 5.71875 -7.71875 4.9375 -7.71875 C 4.15625 -7.71875 3.492188 -7.421875 2.953125 -6.828125 C 2.421875 -6.242188 2.15625 -5.453125 2.15625 -4.453125 Z M 2.15625 -4.453125 "/></g></g></g></svg>