<svg xmlns="http://www.w3.org/2000/svg" version="1.1" xmlns:xlink="http://www.w3.org/1999/xlink" xmlns:svgjs="http://svgjs.dev/svgjs" width="1000" height="181" viewBox="0 0 1000 181"><g transform="matrix(1,0,0,1,-0.6060589120399982,0.32969124109574466)"><svg viewBox="0 0 396 72" data-background-color="#ffffff" preserveAspectRatio="xMidYMid meet" height="181" width="1000" xmlns="http://www.w3.org/2000/svg" xmlns:xlink="http://www.w3.org/1999/xlink"><g id="tight-bounds" transform="matrix(1,0,0,1,0.23999966998525224,-0.13114789701046448)"><svg viewBox="0 0 395.52 72.26229579402094" height="72.26229579402094" width="395.52"><g><svg viewBox="0 0 553.6413543007147 101.15138376891333" height="72.26229579402094" width="395.52"><g><rect width="9.076553409461347" height="101.15138376891333" x="125.2841898717211" y="0" fill="#3d9970" opacity="1" stroke-width="0" stroke="transparent" fill-opacity="1" class="rect-o-0" data-fill-palette-color="primary" rx="1%" id="o-0" data-palette-color="#3d9970"></rect></g><g transform="matrix(1,0,0,1,158.12135430071476,0.25162035763410984)"><svg viewBox="0 0 395.52 100.64814305364511" height="100.64814305364511" width="395.52"><g id="textblocktransform"><svg viewBox="0 0 395.52 100.64814305364511" height="100.64814305364511" width="395.52" id="textblock"><g><svg viewBox="0 0 395.52 100.64814305364511" height="100.64814305364511" width="395.52"><g transform="matrix(1,0,0,1,0,0)"><svg width="395.52" viewBox="2.1500000953674316 -36.5 145.38999938964844 37" height="100.64814305364511" data-palette-color="#3d9970"><path d="M23.6-25.1L23.6-11.9 21.05-11.9 20.15-17 11.85-17 11.85-3 26.95-3 28.5-11.15 31.4-11.15 31.4 0 2.15 0 2.15-2.15 6.85-3.2 6.85-32.8 2.15-33.85 2.15-36 30.3-36 30.3-25.4 27.7-25.4 26.1-33.1 11.85-33.1 11.85-20 20.15-20 21.05-25.1 23.6-25.1ZM42-2.8L54.75-2.8 55.75-9.6 58.6-9.6 58.6 0 36.45 0 36.45-2.8 52.85-24.2 41.15-24.2 39.95-17.65 37.1-17.65 37.1-27 58.4-27 58.4-24.2 42-2.8ZM96.7-18.4L96.7-18.4Q96.7-14.05 95.37-10.23 94.05-6.4 91.7-3.85L91.7-3.85Q89.65-1.65 86.77-0.58 83.9 0.5 80.15 0.5L80.15 0.5Q76.35 0.5 73.45-0.55 70.55-1.6 68.6-3.7L68.6-3.7Q66.3-6.1 65.05-9.73 63.8-13.35 63.8-17.6L63.8-17.6Q63.8-21.95 65.12-25.78 66.45-29.6 68.8-32.15L68.8-32.15Q70.9-34.4 73.67-35.45 76.45-36.5 80.25-36.5L80.25-36.5Q84.05-36.5 86.92-35.48 89.8-34.45 91.85-32.3L91.85-32.3Q94.2-29.9 95.45-26.25 96.7-22.6 96.7-18.4ZM69.55-18.6L69.55-18.6Q69.55-14.45 70.25-11.23 70.95-8 72.25-5.95L72.25-5.95Q73.55-4.1 75.52-3.18 77.5-2.25 80.4-2.25L80.4-2.25Q85.7-2.25 88.2-5.55L88.2-5.55Q89.55-7.4 90.25-10.48 90.95-13.55 90.95-17.7L90.95-17.7Q90.95-21.85 90.25-25 89.55-28.15 88.2-30.1L88.2-30.1Q86.9-32 84.87-32.9 82.85-33.8 80.1-33.8L80.1-33.8Q77.45-33.8 75.52-32.98 73.6-32.15 72.3-30.5L72.3-30.5Q69.55-26.85 69.55-18.6ZM100.79-27L108.99-27 108.99-12.85Q108.99-9.65 109.17-8.03 109.34-6.4 109.79-5.5L109.79-5.5Q110.34-4.3 111.44-3.68 112.54-3.05 113.99-3.05L113.99-3.05Q115.34-3.05 116.59-3.55 117.84-4.05 118.79-4.9L118.79-4.9Q120.84-6.75 121.04-10.65L121.04-10.65 121.04-24 116.69-24.95 116.69-27 125.89-27 125.89-3 129.74-2.05 129.74 0 121.99 0.5 121.44-5 121.24-5Q119.79-2.45 117.29-0.98 114.79 0.5 111.94 0.5L111.94 0.5Q110.04 0.5 108.47-0.23 106.89-0.95 105.99-2.2L105.99-2.2Q105.04-3.6 104.59-6.15 104.14-8.7 104.14-12.95L104.14-12.95 104.14-24 100.79-24.95 100.79-27ZM136.29-24.5L131.44-24.5 131.44-26.3 136.29-27 136.94-33.3 141.14-33.9 141.14-27 147.54-27 147.54-24.5 141.14-24.5 141.14-6.65Q141.14-4.95 141.19-4.33 141.24-3.7 141.39-3.3L141.39-3.3Q141.54-2.95 141.94-2.83 142.34-2.7 143.24-2.7L143.24-2.7 146.74-2.7 146.74-1.25Q144.34-0.35 142.52 0.08 140.69 0.5 139.59 0.5L139.59 0.5Q137.34 0.5 136.69-1.35L136.69-1.35Q136.49-1.95 136.39-2.9 136.29-3.85 136.29-5.7L136.29-5.7 136.29-24.5Z" opacity="1" transform="matrix(1,0,0,1,0,0)" fill="#3d9970" class="undefined-text-0" data-fill-palette-color="primary" id="text-0"></path></svg></g></svg></g></svg></g></svg></g><g transform="matrix(1,0,0,1,0,0.25162035763410984)"><svg viewBox="0 0 101.52357885218878 100.64814305364511" height="100.64814305364511" width="101.52357885218878"><g><svg xmlns="http://www.w3.org/2000/svg" xmlns:xlink="http://www.w3.org/1999/xlink" version="1.1" x="0" y="0" viewBox="4.9810004234313965 5.381000518798828 90.10899353027344 89.33198547363281" enable-background="new 0 0 100 100" xml:space="preserve" height="100.64814305364511" width="101.52357885218878" class="icon-icon-0" data-fill-palette-color="accent" id="icon-0"><path d="M81.792 13.762c0-4.628-3.752-8.381-8.381-8.381-4.628 0-8.381 3.752-8.381 8.381 0 4.628 3.752 8.381 8.381 8.381C78.04 22.142 81.792 18.39 81.792 13.762zM78.2 13.762c0 2.641-2.148 4.789-4.789 4.789-2.641 0-4.789-2.148-4.789-4.789 0-2.641 2.148-4.789 4.789-4.789C76.052 8.973 78.2 11.121 78.2 13.762zM36.238 76.623L13.99 87.834c-0.634-0.477-1.414-0.769-2.266-0.769-2.093 0-3.796 1.702-3.796 3.794 0 2.093 1.703 3.796 3.796 3.796s3.795-1.703 3.795-3.796c0-0.009-0.003-0.018-0.003-0.027l26.71-13.46 2.875 10.652c-0.791 0.696-1.3 1.703-1.3 2.836 0 2.093 1.703 3.796 3.796 3.796s3.796-1.703 3.796-3.796c0-1.835-1.311-3.369-3.046-3.718l-3.309-12.257 4.28-21.461 3.051-0.651c0.778 0.665 1.836 0.985 2.914 0.76 0.042-0.009 0.078-0.027 0.119-0.038l0.002 0.009 11.92-3.469v5.332h0l-9.512 15.089-3.53 22.878 9.175 1.379 3.119-20.751 8.085-12.734 1.891 12.799 10.254 20.452 8.284-4.179-9.535-18.9-2.218-16.033V31.902c0-4.422-3.585-8.006-8.006-8.006s-8.006 3.585-8.006 8.006V42.87l-13.694 4.023 0.006 0.021c-1.272 0.369-2.189 1.415-2.414 2.663l-1.188 0.253 0.009-0.043-3.64 0.837c-1.068-2.692-3.932-4.331-6.874-3.746-1.382 0.277-2.58 1.024-3.471 2.092l-2.348-4.014-7.472 4.803-2.531-2.226-4.93 6.105v-0.034H10.64l-0.601 5.381-5.058 1.163 2.896 16.476H36.238zM16.994 55.846l-1.527 1.891-3.112 0.715 0.291-2.606H16.994zM23.984 50.761l4.522 3.978-9.499 2.184L23.984 50.761zM34.837 51.322c-0.172 0.651-0.232 1.323-0.18 2.003l-3.46 0.795-3.207-2.821 4.966-3.193L34.837 51.322zM44.173 51.137l-7.314 1.682c0.009-0.74 0.226-1.462 0.646-2.092 0.574-0.861 1.45-1.447 2.465-1.65C41.712 48.726 43.406 49.624 44.173 51.137zM46.043 90.858c0-0.856 0.697-1.551 1.554-1.551s1.554 0.696 1.554 1.551c0 0.856-0.697 1.553-1.554 1.553S46.043 91.715 46.043 90.858zM11.724 89.307c0.856 0 1.553 0.696 1.553 1.551 0 0.856-0.697 1.553-1.553 1.553-0.857 0-1.554-0.697-1.554-1.553C10.17 90.003 10.867 89.307 11.724 89.307z" fill="#3d9970" data-fill-palette-color="accent"></path></svg></g></svg></g></svg></g><defs></defs></svg><rect width="395.52" height="72.26229579402094" fill="none" stroke="none" visibility="hidden"></rect></g></svg></g></svg>